<svg xmlns="http://www.w3.org/2000/svg" xmlns:xlink="http://www.w3.org/1999/xlink" width="128" height="128" viewBox="0 0 128 128" fill="currentColor">
    <path transform="scale(0.125 0.125)" d="M519.859 215.851C538.037 216.541 556.155 218.359 574.109 221.293L597.613 226.516C581.38 244.155 562.701 262.204 545.715 279.215L458.363 366.901L426.767 398.515C410.789 414.447 396.723 426.754 385.784 447.03C364.713 486.38 358.78 533.88 376.205 575.859C377.837 579.868 379.311 583.569 381.268 587.451C389.469 605.24 401.217 621.167 415.791 634.256C417.48 635.781 422.498 640.161 424.384 641.352C430.856 646.236 439.202 651.674 446.516 655.395C462.358 663.189 478.147 668.369 495.756 670.589C498.668 670.957 503.511 671.662 506.352 671.555C508.009 671.335 510.477 671.329 512.201 671.271C511.846 661.344 511.846 649.885 511.99 639.987L527.089 639.945C532.065 640.379 539.53 640.124 544.743 640.107L575.439 639.999C575.455 644.54 575.913 654.539 575.674 658.41C598.532 648.663 611.038 636.339 627.799 619.192C633.597 613.261 639.984 607.261 645.512 601.095C649.558 598.576 665.334 581.495 669.539 577.289L756.776 490.074L783.078 463.825C787.978 458.941 793.941 453.362 798.379 448.252C799.222 447.592 802.697 444.12 803.632 443.22L804.93 448.154C810.854 471.419 811.983 487.841 813.347 511.105C814.216 555.498 808.751 598.159 791.132 639.325C773.598 680.015 751.652 712.954 719.009 743.28C713.18 748.639 707.155 753.781 700.946 758.695C698.653 760.535 693.517 764.353 691.585 766.214L690.72 766.725C685.78 769.676 680.079 774.513 675.235 777.414C663.604 784.378 650.591 792.03 638.29 797.648C614.351 808.455 598.998 813.366 573.072 819.153C566.876 820.296 560.656 821.301 554.416 822.17C551.857 822.521 543.408 823.469 541.194 824.13C532.42 824.186 522.702 825.333 513.563 825.517C506.792 825.653 494.407 824.196 489.214 824.592C485.316 824.209 481.423 823.773 477.536 823.282C403.988 814.024 340.951 782.575 290.127 728.109C282.048 719.451 275.377 710.677 268.142 701.354C263.953 695.615 259.963 689.733 256.18 683.719C246.541 667.901 240.147 654.93 233.168 637.855C224.755 615.461 219.919 599.202 215.732 575.205C209.232 535.575 210.746 487.773 220.351 448.723C225.941 425.169 233.5 405.741 243.97 384.144C247.744 376.895 251.634 369.367 255.938 362.42C299.319 292.218 368.804 242.116 449.116 223.131C471.244 217.635 497.094 216.071 519.859 215.851Z"/>
    <path transform="scale(0.125 0.125)" d="M810.66 130.867C821.333 121.605 825.483 113.804 840.269 107.765C858.938 100.14 875.973 101.003 894.347 108.412C911.734 116.885 923.747 129.964 930.174 148.355C935.869 164.849 934.78 182.929 927.149 198.621C921.794 209.578 911.055 218.797 902.313 227.467C893.232 236.347 884.212 245.289 875.254 254.294L683.814 445.866L660.868 468.812C653.542 476.146 648.048 482.284 639.548 488.395C615.716 501.123 602.033 499.065 576.095 498.915C554.546 498.757 532.997 498.71 511.448 498.775L448.354 498.892C446.666 498.852 444.645 498.615 442.939 498.463L640.985 300.723C655.203 286.34 669.494 272.029 683.858 257.79L768.568 173.203C767.249 168.08 768.074 136.147 767.929 128.126C773.8 128.06 808.004 126.725 810.494 129.303C810.924 129.748 810.697 130.298 810.66 130.867Z"/>
</svg>