<?xml version="1.0" encoding="utf-8" ?>
<svg xmlns="http://www.w3.org/2000/svg" xmlns:xlink="http://www.w3.org/1999/xlink" width="128" height="128" viewBox="0 0 128 128" fill="currentColor">
    <path 
        transform="scale(0.125 0.125)"         
        d="M437.522 67.7735C441.642 67.5965 445.765 67.4758 449.888 67.4117C479.331 67.0203 509.777 67.2571 539.247 67.3505L567.298 67.4332C580.008 67.4065 595.168 66.7093 607.352 70.423C631.313 77.7264 652.99 99.8493 657.983 124.662C660.386 136.605 660.001 150.731 660.01 162.817L660.006 204.161L660.039 364.034L821.187 364.023L865.852 363.997C877.014 363.993 888.536 363.365 899.532 365.35C935.092 371.769 959.099 402.624 959.394 438.327C959.63 466.721 959.044 495.108 959.043 523.504C959.001 533.208 959.07 542.913 959.251 552.615C959.581 568.507 960.414 588.89 957.196 604.148C951.905 629.228 927.969 652.608 902.967 657.83C892.634 659.988 879.566 659.569 868.992 659.563L831.782 659.543L729.934 659.554C713.53 659.52 697.131 658.816 680.725 659.081C673.848 659.192 666.976 659.513 660.1 659.653C659.749 678.884 660.021 698.978 660.025 718.274L660.058 825.411L660.098 865.287C660.104 872.182 660.326 879.228 659.961 886.099C657.729 928.144 624.299 956.292 583.502 956.404C564.561 956.633 544.191 956.062 525.011 956.077L446.99 956.584C423.716 956.525 405.008 950.865 388.239 933.904C378.466 924.061 371.747 911.602 368.89 898.029C366.905 888.227 367.234 872.347 367.171 861.884C367.027 843.575 367.048 825.265 367.232 806.956L367.118 659.531C342.082 658.747 318.819 659.312 293.972 659.4L192.159 659.165L156.492 659.201C147.236 659.245 135.597 659.736 126.757 658.043C112.863 655.25 100.051 648.56 89.82 638.754C69.9155 619.472 68.0274 600.056 67.7384 574.529L67.6279 499.571L67.5759 461.1C67.6308 431.119 65.992 408.685 88.8852 385.499C98.8988 375.481 111.625 368.613 125.496 365.741C137.359 363.306 145.88 364.282 157.746 364.207L206.954 364.197L367.205 364.004C366.384 342.604 367.003 317.858 367.205 296.334L367.4 218.448C367.435 197.861 366.955 177.185 367.048 156.584C367.167 130.502 368.114 112.082 386.589 91.7846C399.691 77.3164 418.024 68.6738 437.522 67.7735ZM195.743 546.321C202.323 550.646 225.348 565.943 231.768 567.948C235.326 569.047 239.107 569.211 242.747 568.424C250.398 566.801 256.875 560.559 257.204 552.698C258.079 531.821 257.206 510.617 257.782 489.726C258.197 474.631 259.347 454.891 239.363 453.154C234.752 454.018 230.385 455.403 226.252 457.705C208.4 467.649 191.562 479.023 174.209 489.865C165.489 495.313 152.484 502.084 154.732 514.582C155.912 521.144 162.749 525.962 168.002 529.271C177.162 534.804 186.178 540.741 195.401 546.124L195.743 546.321ZM833.946 545.394C838.979 542.405 844.584 539.127 849.499 535.822C857.643 530.347 870.834 524.604 873.642 514.464C876.717 503.36 864.907 496.567 857.07 491.799C838.442 480.341 820.256 468.114 801.642 456.645C797.579 454.142 793.24 452.862 788.452 453.29C769.072 456.465 770.82 473.994 770.932 488.778L771.099 515.751C771.147 529.473 767.21 557.583 779.505 566.162C789.119 572.87 800.176 567.215 808.408 561.451C816.944 556.019 825.467 550.787 833.946 545.394ZM515.875 259.102C520.52 258.913 525.368 258.671 530.224 258.779C546.516 259.144 571.585 261.973 570.66 238.115C569.843 232.009 565.507 225.399 562.413 220.357C553.573 205.953 544.842 191.654 536.253 177.129C530.452 167.322 525.053 157.025 512.146 157.52C508.735 158.687 502.972 160.818 500.884 163.854C486.485 184.684 473.364 207.672 460.418 229.403C454.677 239.04 456.172 252.425 466.979 256.397C480.229 261.267 501.583 258.541 515.875 259.102ZM533.939 854.702C541.61 841.704 549.463 828.814 557.496 816.037C563.166 806.93 572.841 796.096 570.036 785.1C568.82 780.379 565.711 776.37 561.442 774.017C558.879 772.605 554.145 771.283 551.099 771.216C529.543 770.741 507.921 771.249 486.348 770.997C483.857 770.968 480.114 770.874 477.697 771.198C462.366 772.529 451.441 783.997 459.725 798.804C466.65 811.182 474.053 823.902 481.654 835.867C491.685 851.656 509.544 889.952 529.663 861.124C531.116 859.002 532.542 856.861 533.939 854.702Z"/>
</svg>