<svg xmlns="http://www.w3.org/2000/svg" xmlns:xlink="http://www.w3.org/1999/xlink" width="128" height="128" viewBox="24 24 72 72" fill="currentColor">
     <!-- <path 
        transform="matrix(0.125 0 0 0.125 0 0)" 
        d="M490.62 302.215C497.424 301.261 511.216 301.973 517.769 302.793C599.378 313.005 651.947 390.643 642.195 469.92C637.381 510.159 616.776 546.837 584.916 571.883C549.865 599.058 510.502 605.609 467.343 600.134C474.078 590.181 490.704 571.594 499.055 561.379L554.789 492.291C569.788 473.642 574.831 460.853 572.959 436.058C569.035 384.086 510.614 352.429 466.002 380.338C452.48 388.797 435.347 412.454 424.665 425.652L379.161 482.419C374.154 488.729 369.432 495.313 364.389 501.494C359.206 490.364 356.597 476.74 355.515 464.478C351.742 423.958 364.547 383.639 391.008 352.721C416.148 323.277 452.009 305.094 490.62 302.215Z"/><path fill="#FEFEFE" transform="matrix(0.125 0 0 0.125 0 6.10352e-05)" d="M471.028 449.239C485.013 449.139 499.182 449.323 513.179 449.374C522.638 449.409 533.545 449.2 542.901 449.713C541.435 452.209 539.878 454.067 537.953 456.218C525.499 470.137 513.801 484.656 501.907 499.056C465.983 543.424 429.57 587.394 392.672 630.955C433.853 632.732 475.817 629.816 516.986 631.879C521.016 632.081 527.862 636.127 531.014 638.721C538.482 644.784 543.207 653.589 544.13 663.164C545.938 682.203 532.495 700.464 513.124 702.003C512.702 702.028 512.28 702.051 511.857 702.072C497.694 702.758 481.078 702.414 466.702 702.43L388.391 702.468L345.038 702.52C337.319 702.525 325.677 703.081 318.336 701.772C302.004 698.861 289.003 682.437 288.671 666.056C288.569 661.015 289.436 654.216 291.715 649.532C298.09 638.937 307.329 628.451 315.15 618.929L353.999 571.517L411.283 499.96C422.141 486.312 433.318 472.028 444.636 458.769C450.394 452.024 462.361 449.521 471.028 449.239Z"/><path fill="#FEFEFE" transform="matrix(0.125 0 0 0.125 0 6.10352e-05)" d="M625.582 225.595C638.905 225.056 661.39 237.261 672.853 244.383C710.474 267.759 739.005 308.038 748.769 351.223C754.851 376.52 754.039 403.364 749.817 428.91C747.982 440.013 746.412 453.975 733.115 456.788C722.873 456.773 714.574 452.435 713.35 441.012C712.663 434.6 716.076 426.002 717.278 419.45C721.173 397.535 720.273 375.037 714.639 353.503C704.941 317.86 681.295 287.625 649.04 269.623C644.308 267.002 640.253 264.99 635.269 262.881C630.715 260.954 623.569 258.7 619.506 256.264C615.753 254.041 613.06 250.395 612.037 246.155C610.902 241.534 611.729 236.65 614.321 232.66C617.266 228.196 620.555 226.542 625.582 225.595Z"/><path fill="#FEFEFE" transform="matrix(0.125 0 0 0.125 0 6.10352e-05)" d="M613.115 282.09C619.44 281.504 624.491 283.097 630.25 285.548C658.323 297.544 680.509 320.162 691.961 348.461C699.459 367.647 701.847 388.45 698.892 408.836C697.356 420.18 695.484 431.545 683.646 436.171C673.372 437.589 664.435 433.041 662.389 421.966C661.787 417.089 663.583 411.791 664.596 407.046C672.025 372.253 654.793 336.704 623.473 320.093C615.129 315.667 605.049 315.381 601.032 305.08C599.321 300.58 599.534 295.575 601.623 291.238C604.31 285.612 607.746 283.92 613.115 282.09Z"/> -->
     <!-- The paths have been scaled and positioned to fit the new viewBox -->
     <path d="M61.3275 37.7769C62.178 37.6698 63.652 37.7566 64.3312 37.8592C74.9223 39.1256 80.5934 48.8304 79.5744 58.74C79.085 63.7699 76.9022 68.2296 73.3444 71.3789C69.3582 74.8823 65.011 75.7196 60.5054 75.0168C61.1969 73.7726 62.913 71.3193 63.7431 70.0074L69.3486 61.5364C70.9735 59.1866 71.5039 57.5104 71.3199 54.5073C70.8353 48.0117 64.8267 43.8036 59.9502 47.4572C58.2125 48.5996 56.4026 51.5568 55.4542 53.2065L50.8951 60.6724C50.3692 61.4727 49.8821 62.3392 49.3736 63.1931C48.756 61.7371 48.4239 59.9925 48.3144 58.4848C47.8863 53.0039 49.4975 47.705 52.876 43.8401C55.7061 40.4096 60.1011 38.1368 61.3275 37.7769Z"/>
     <path d="M58.8785 56.155C60.6266 56.1424 62.3977 56.166 64.0724 56.1724C65.0568 56.1761 66.2163 56.1517 67.2917 56.2141C67.1044 56.5261 66.9048 56.7583 66.6669 57.0315C65.0186 58.7671 63.5358 60.582 62.0884 62.4042C57.5029 68.0436 52.9304 73.6192 48.167 79.1578C53.4816 79.3788 58.7831 79.0116 64.0983 79.2649C64.6067 79.2901 65.4528 79.8059 65.8456 80.1396C66.7728 80.9324 67.3197 82.0486 67.4363 83.2104C67.6534 85.5254 65.9181 87.758 63.9218 87.9547C63.8687 87.9579 63.8155 87.961 63.7623 87.9639C62.0211 88.0447 60.1348 88.0017 58.3377 88.0041L48.5489 88.0086L43.1298 88.0145C42.1649 88.0152 40.6721 88.0851 39.9922 87.9103C37.9505 87.5459 36.638 85.5546 36.5964 83.507C36.5836 82.8769 36.6908 82.027 36.9894 81.4415C37.7612 80.1171 38.9221 78.7839 39.8893 77.5855L44.75 71.4396L51.4104 62.495C52.8361 60.789 54.2647 59.0035 55.7045 57.3461C56.3752 56.4959 57.9451 56.1765 58.8785 56.155Z"/>
     <path d="M78.1978 28.2144C79.8631 28.1408 82.5298 29.6576 83.9866 30.5479C88.6659 33.5859 91.9084 38.6017 93.1461 44.0279C93.8967 47.165 93.7937 50.569 93.3646 53.8637C93.1477 55.2516 92.9515 56.8488 91.3144 57.1991C90.024 57.1973 89.043 56.6669 88.9405 55.2891C88.8517 54.45 89.2845 53.3855 89.4001 52.5954C89.8706 49.6919 89.7712 46.8587 89.0601 44.1879C87.8226 39.8825 85.1519 36.1472 81.38 33.8529C80.8927 33.5135 80.3703 33.2655 79.7423 32.9961C79.1983 32.7533 78.4116 32.4849 77.9442 32.1818C77.5255 31.8904 77.1852 31.4373 77.0546 30.9324C76.9079 30.3168 77.011 29.6983 77.3396 29.1997C77.7011 28.6496 78.0772 28.4428 78.1978 28.2144Z"/>
     <path d="M76.6394 35.2612C77.3756 35.1879 77.9864 35.3872 78.7116 35.6936C82.1654 37.2055 84.7936 39.9926 86.2452 43.5576C87.195 45.9559 87.5029 48.6062 87.1264 51.092C86.932 52.5225 86.6918 53.9556 85.1057 54.5214C83.8246 54.7042 82.8043 54.1299 82.5349 52.8986C82.4584 52.2611 82.6841 51.5831 82.812 51.0117C83.7431 46.5316 81.6508 42.1287 77.8592 40.0116C76.8122 39.4613 75.6436 39.4259 75.1436 38.0935C74.9333 37.5225 74.9602 36.8837 75.228 36.3423C75.5788 35.6521 76.0152 35.4376 76.6394 35.2612Z"/>

</svg>