<svg xmlns="http://www.w3.org/2000/svg" xmlns:xlink="http://www.w3.org/1999/xlink" width="128" height="128" viewBox="0 0 128 128" fill="currentColor">
    <path transform="scale(0.125 0.125)" d="M504.077 215.72C523.083 215.246 542.097 216.179 560.965 218.511C662.849 231.225 755.469 284.006 818.339 365.18C873.139 435.224 901.988 522.086 899.982 610.997C899.649 628.436 897.778 644.784 895.657 662.018C883.459 660.437 871.236 657.92 859.12 655.693C843.759 652.822 828.356 650.183 812.915 647.776C813.746 643.017 814.378 635.985 815.008 631.028C830.208 632.136 845.787 634.849 860.875 637.216C862.108 628.846 862.509 614.697 862.689 605.979C864.09 554.434 853.443 503.273 831.594 456.566C818.191 463.104 805.072 469.975 791.556 476.486C788.768 471.409 786.2 466.213 783.859 460.915C793.014 455.387 813.253 445.825 823.494 440.666C808.805 409.038 779.977 374.624 755.504 350.302C746.851 360.953 735.755 372.857 726.525 383.25C722.09 379.934 717.741 375.571 713.746 371.688C722.118 361.09 733.047 349.223 742.112 339.017C715.909 312.976 681.803 295.758 648.853 280.037C643.596 293.359 638.468 306.893 633.062 320.137C627.481 318.336 622.47 316.479 616.992 314.409C621.78 300.974 626.994 287.463 631.904 274.027C600.684 261.462 555.861 253.917 522.4 253.498C522.624 267.836 522.466 282.567 522.477 296.935L505.07 296.952C504.86 289.953 504.859 282.669 504.758 275.645C504.499 268.382 504.541 260.79 504.483 253.498C472.138 253.151 425.564 263.348 395.66 275.086C400.906 288.553 406.557 302.15 411.986 315.566L395.906 322.082C390.258 310.362 384.287 293.991 379.427 281.606C340.274 299.344 318.789 313.216 287.111 341.053C296.954 351.357 307.424 362.34 316.739 373.05C312.824 376.999 308.408 381.059 304.349 384.914C294.433 373.74 284.4 363.705 274.433 352.788C250.626 377.744 224.784 408.689 210.221 440.351C223.003 445.982 237.308 453.786 249.763 460.319C247.218 465.285 244.577 470.271 242.307 475.363C229.169 469.454 215.277 462.363 202.257 455.993C187.697 488.06 180.286 514.939 174.763 549.387C188.934 550.894 203.122 552.368 217.181 554.701C216.692 560.089 216.008 566.332 215.113 571.621C205.131 570.114 181.785 567.12 172.369 566.949C169.987 592.855 170.953 612.206 173.207 637.742C185.958 635.116 204.217 632.958 217.43 631.008C218.191 636.598 219.002 642.181 219.864 647.756C194.38 653.03 163.488 656.21 138.675 662.353C136.847 647.448 134.868 632.663 134.095 617.656C129.627 516.254 165.484 417.207 233.827 342.163C293.908 274.551 376.292 230.79 465.951 218.861C478.976 217.09 491.021 216.377 504.077 215.72Z"/>
    <!-- <path fill="#0000FF" transform="scale(0.125 0.125)" d="M593.837 483.221C641.767 482.381 659.175 518.667 662.22 561.243C665.435 606.187 654.764 661.084 600.625 665.007C583.386 665.553 569.693 662.707 556.274 651.038C538.102 635.236 531.825 610.454 530.587 587.195C529.121 559.651 530.963 523.214 550.247 501.701C561.948 488.646 576.839 484.147 593.837 483.221ZM600.539 630.89C605.83 629.761 613.491 626.66 616.158 621.626C628.545 598.251 626.807 567.189 622.23 541.786C619.257 525.28 608.811 515.432 591.482 517.128C565.695 522.242 567.416 557.168 567.138 577.607C566.848 598.917 570.272 635.061 600.539 630.89Z"/> -->
    <!-- <path fill="#0000FF" transform="scale(0.125 0.125)" d="M439.794 483.687C443.848 483.074 451.742 483.262 455.707 483.59C486.864 486.172 507.687 509.676 504.544 541.241C501.799 568.822 481.231 586.76 463.239 605.71C455.472 613.891 447.827 622.23 439.225 629.357C462.062 629.042 486.041 629.485 508.994 629.486L509.041 661.551L416.25 661.499L388.545 661.529L388.524 634.188C392.633 629.612 399.537 623.407 404.205 618.843C416.762 606.723 429.215 594.495 441.561 582.16C446.361 577.296 450.839 572.531 455.538 567.387C465.077 556.944 473.817 539.061 465.16 525.594C458.436 515.133 441.709 512.919 431.943 520.508C424.735 526.109 423.511 533.564 422.311 541.986L386.836 542.008C389.019 508.711 406.129 487.564 439.794 483.687Z"/> -->
    <path fill="#FEFEFE" transform="scale(0.125 0.125)" d="M828.108 464.441L829.144 464.653C831.975 468.292 837.076 483.247 838.774 488.087C850.021 520.092 856.308 553.628 857.417 587.533C857.775 602.014 856.955 616.735 856.151 631.205C846.132 630.08 836.122 628.887 826.12 627.625C822.581 627.257 819.038 626.916 815.493 626.603C816.455 619.305 816.651 610.248 816.833 602.86C817.927 558.563 809.968 521.784 792.9 481.225C804.202 475.542 816.501 470.197 828.108 464.441Z"/>
    <path fill="#FEFEFE" transform="scale(0.125 0.125)" d="M511.503 321.294C513.206 323.74 513.947 330.77 514.391 333.975C518.578 325.713 523.125 320.464 533.091 322.917C548.436 326.693 548.58 357.047 535.176 362.995C529.745 365.405 525.702 364.068 520.73 362.232C521.537 365.479 522.287 369.038 522.915 372.34C527.113 394.42 532.543 416.742 536 438.912C520.497 439.298 504.053 438.861 488.403 438.981C489.892 429.565 491.537 420.174 493.337 410.813C496.973 394.738 499.559 378.182 503.229 361.845C497.593 364.747 492.279 365.58 486.431 362.655C482.781 360.829 475.986 356.755 478.941 352.032C481.072 351.136 483.441 351.157 485.79 350.983C487.218 352.556 488.807 354.587 490.833 355.525C495.058 357.482 501.302 354.404 497.975 349.236C496.028 346.212 492.323 346.235 488.99 345.815L488.903 339.085C492.672 338.74 496.215 339.151 497.979 335.446C497.839 323.762 487.272 335.231 481.887 334.963C480.367 334.238 480.423 334.024 479.61 332.562C479.456 330.668 480.404 329.07 481.575 327.584C488.333 319.009 506.387 321.743 506.888 333.874C507.056 337.933 504.952 340.005 502.195 342.686L506.715 345.758C508.02 337.676 509.851 329.341 511.503 321.294ZM531.232 355.986C537.783 350.953 539.78 330.644 527.025 330.492C520.169 336.955 518.124 355.647 531.232 355.986Z"/>
    <path fill="#FEFEFE" transform="scale(0.125 0.125)" d="M482.362 759.519C491.432 759.167 494.538 759.98 500.415 766.807C505.036 762.591 509.105 759.638 515.731 759.347C540.597 758.254 534.59 792.53 534.925 809.475L519.984 809.51C520.11 800.039 520.844 784.722 518.604 775.771C517.005 774.026 513.353 771.387 511.153 771.516C501.332 772.092 503.391 794.525 503.501 799.864L503.579 809.387L488.524 809.526C488.512 803.461 492.981 761.218 475.401 773.573C470.269 777.18 472.027 801.675 472.096 809.215C467.152 809.043 462.424 809.247 457.491 809.414L457.449 760.463C459.881 760.444 470.087 760.089 471.4 760.906C471.545 762.329 471.484 762.72 472.095 764.022C473.73 763.904 479.188 760.341 482.362 759.519Z"/>
    <path fill="#FEFEFE" transform="scale(0.125 0.125)" d="M587.734 741.457L602.484 741.523L602.517 764.869C609.988 759.842 621.687 756.33 628.781 764.186C637.275 773.591 634.514 796.475 634.511 808.996C629.44 809.004 625.33 809.027 620.244 809.445C620.047 802.458 620.109 795.971 620.228 788.977C620.262 783.729 620.755 777.914 616.822 773.816C613.7 770.563 608.729 770.616 605.894 774.166C604.458 775.897 603.526 778.423 603.094 780.642C601.322 789.723 601.934 800.015 602.593 809.186L588.021 809.312L587.734 741.457Z"/>
    <path fill="#FEFEFE" transform="scale(0.125 0.125)" d="M402.473 741.525L417.005 741.69L417.011 779.969C422.077 773.592 427.886 766.85 433.111 760.466C439.063 760.423 445.146 760.519 451.109 760.552C444.752 767.611 437.048 775.865 431.401 783.428C434.744 788.2 440.675 795.184 444.413 799.858C446.836 803.034 449.221 806.202 451.773 809.277C446.12 809.327 440.466 809.344 434.813 809.329C429.397 803.458 421.767 792.611 416.792 785.879C417.144 793.602 417.066 801.496 417.073 809.239C412.447 809.069 407.261 809.293 402.594 809.393L402.473 741.525Z"/><path fill="#FEFEFE" transform="scale(0.125 0.125)" d="M276.402 622.035C295.18 620.861 298.784 641.508 292.761 655.26C290.652 660.074 287.207 662.267 282.373 663.811C263.311 666.036 259.578 643.626 265.869 630.123C267.897 625.771 271.879 623.327 276.402 622.035ZM281.389 655.585C284.698 652.676 286.075 649.123 286.244 644.782C286.541 637.137 285.557 631.174 277.297 630.035C270.64 635.25 268.765 655.717 281.389 655.585Z"/><path fill="#FEFEFE" transform="scale(0.125 0.125)" d="M770.374 622.059C790.277 620.684 792.645 643.156 785.563 656.847C783.402 661.025 780.008 662.858 775.606 663.963C762.451 664.776 756.204 654.291 756.997 642.23C757.635 632.539 760.091 624.838 770.374 622.059ZM774.996 655.731C782.272 650.052 783.6 630.128 770.879 629.922C764.533 635.664 762.84 655.035 774.996 655.731Z"/><path fill="#FEFEFE" transform="scale(0.125 0.125)" d="M707.321 392.004C722.389 391.14 728.053 402.676 726.417 416.267C725.393 424.777 722.257 430.755 713.66 433.498C694.873 434.336 691.23 414.392 697.075 400.443C699.081 395.655 702.693 393.659 707.321 392.004ZM712.877 425.16C719.459 418.392 720.825 401.382 708.515 399.843C701.913 406.728 700.55 425.818 712.877 425.16Z"/><path fill="#FEFEFE" transform="scale(0.125 0.125)" d="M569.219 737.863L581.973 737.959C573.518 758.38 566.788 780.249 559.235 801.052C556.811 807.728 554.38 815.166 552.564 821.993L539.674 821.996C549.854 794.431 559.399 765.675 569.219 737.863Z"/><path fill="#FEFEFE" transform="scale(0.125 0.125)" d="M967.625 944.184C970.398 945.973 973.207 955.226 976.539 958.457C981.717 963.479 987.015 965.036 993.149 968.54C990.888 969.376 988.645 970.26 986.422 971.19C975.097 975.985 972.667 982.162 968.496 992.531C967.353 991.653 965.792 988.869 965.209 987.532C960.176 975.991 954.672 972.837 943.312 968.058C958.75 959.514 959.454 961.429 967.625 944.184Z"/><path fill="#FEFEFE" transform="scale(0.125 0.125)" d="M321.99 389.902L332.531 389.881C332.481 397.566 332.217 407.441 332.928 414.903L337.461 416.468C337.777 419.167 338.274 420.643 336.701 422.676C335.028 423.118 334.562 423.124 333.229 424.272C332.126 426.162 332.525 428.374 332.604 430.684C330.017 430.72 327.809 430.935 325.343 430.212C324.022 428.862 324.485 429.666 324.165 427.587C323.955 425.871 323.839 425.428 323.37 423.746C321.053 422.544 307.898 423.069 304.509 423.101L304.482 415.297C308.756 408.108 316.982 397.129 321.99 389.902ZM315.362 415.244L324.033 415.289C324.042 412.896 324.482 403.15 323.331 401.861C321.365 404.559 315.477 412.294 314.868 414.951L315.362 415.244Z"/><path fill="#FEFEFE" transform="scale(0.125 0.125)" d="M738.032 622.49L748.445 622.506C748.494 627.079 747.563 644.681 749.663 647.526C751.299 648.277 752.372 648.583 753.516 649.971C754.081 651.777 753.827 652.217 753.386 654.037C752.188 655.391 750.277 655.94 748.546 656.637L748.523 663.517C745.11 663.608 740.727 664.652 739.73 660.878L739.621 657.885C736.517 653.153 725.249 657.104 722.476 655.478C715.425 651.344 735.107 626.745 738.032 622.49ZM731.185 647.875L740.161 647.874C740.146 645.229 740.282 635.916 739.633 633.835C738.075 636.02 730.967 645.863 731.185 647.875Z"/><path fill="#FEFEFE" transform="scale(0.125 0.125)" d="M675.874 392.529L686.58 392.545C686.588 398.028 685.823 412.996 687.236 417.205C689.244 418.248 689.816 417.564 691.139 419.309C691.479 421.456 691.378 421.607 690.859 423.776C689.675 425.346 688.345 425.689 686.521 426.493L686.523 433.041C683.84 433.133 681.356 433.416 678.791 432.728C677.348 431.458 677.808 432.256 677.607 430.122C677.597 428.729 677.706 426.616 676.957 425.64C672.202 425.2 663.588 425.552 658.503 425.638L658.49 418.509C664.287 409.702 670.083 401.567 675.874 392.529ZM669.141 417.579L678.012 417.543C678.027 414.22 678.26 406.799 677.715 403.855C675.756 406.267 669.102 414.769 669.141 417.579Z"/><path fill="#FEFEFE" transform="scale(0.125 0.125)" d="M255.09 622.25C256.137 622.178 255.665 622.033 256.497 622.709C257.387 633.571 256.787 652.176 256.761 663.466L247.618 663.511L247.512 658.569L247.471 631.159L240.44 632.975C240.077 630.195 240.013 627.314 239.885 624.505C244.878 623.304 249.981 622.675 255.09 622.25Z"/>
    </svg>